<mxfile host="app.diagrams.net" agent="Mozilla/5.0 (Windows NT 10.0; Win64; x64) AppleWebKit/537.36 (KHTML, like Gecko) Chrome/135.0.0.0 Safari/537.36 Edg/135.0.0.0" version="26.2.13">
  <diagram name="Trang-1" id="-K6SBRJ10VremqYksdTf">
    <mxGraphModel dx="1551" dy="1033" grid="0" gridSize="10" guides="1" tooltips="1" connect="1" arrows="1" fold="1" page="0" pageScale="1" pageWidth="827" pageHeight="1169" math="0" shadow="0">
      <root>
        <mxCell id="0" />
        <mxCell id="1" parent="0" />
        <mxCell id="8ikcBTe8eukAY_QbmhF5-56" style="edgeStyle=none;curved=1;rounded=0;orthogonalLoop=1;jettySize=auto;html=1;exitX=0.5;exitY=0;exitDx=0;exitDy=0;exitPerimeter=0;entryX=0.5;entryY=0;entryDx=0;entryDy=0;fontSize=12;startSize=8;endSize=8;" parent="1" edge="1">
          <mxGeometry relative="1" as="geometry">
            <Array as="points">
              <mxPoint x="976" y="-274" />
            </Array>
            <mxPoint x="-116.5" y="24" as="sourcePoint" />
          </mxGeometry>
        </mxCell>
        <mxCell id="8ikcBTe8eukAY_QbmhF5-57" style="edgeStyle=none;curved=1;rounded=0;orthogonalLoop=1;jettySize=auto;html=1;exitX=0;exitY=1;exitDx=0;exitDy=0;exitPerimeter=0;entryX=0.5;entryY=1;entryDx=0;entryDy=0;fontSize=12;startSize=8;endSize=8;" parent="1" edge="1">
          <mxGeometry relative="1" as="geometry">
            <Array as="points">
              <mxPoint x="-301" y="958" />
              <mxPoint x="843" y="1152" />
            </Array>
            <mxPoint x="-152" y="108" as="sourcePoint" />
          </mxGeometry>
        </mxCell>
        <mxCell id="8ikcBTe8eukAY_QbmhF5-51" style="edgeStyle=none;curved=1;rounded=0;orthogonalLoop=1;jettySize=auto;html=1;exitX=0;exitY=1;exitDx=0;exitDy=0;exitPerimeter=0;entryX=0.013;entryY=0.706;entryDx=0;entryDy=0;entryPerimeter=0;fontSize=12;startSize=8;endSize=8;" parent="1" edge="1">
          <mxGeometry relative="1" as="geometry">
            <Array as="points">
              <mxPoint x="-208" y="801" />
            </Array>
            <mxPoint x="-152" y="108" as="sourcePoint" />
          </mxGeometry>
        </mxCell>
        <mxCell id="26EyB5CPqML8sxjRB_R2-1" value="Nhân viên" style="shape=umlActor;verticalLabelPosition=bottom;verticalAlign=top;html=1;outlineConnect=0;" vertex="1" parent="1">
          <mxGeometry x="-246" y="-28" width="30" height="60" as="geometry" />
        </mxCell>
        <mxCell id="26EyB5CPqML8sxjRB_R2-3" value="" style="endArrow=open;endFill=1;endSize=12;html=1;rounded=0;exitX=1;exitY=0.3333333333333333;exitDx=0;exitDy=0;exitPerimeter=0;entryX=0;entryY=0.5;entryDx=0;entryDy=0;edgeStyle=orthogonalEdgeStyle;" edge="1" parent="1" source="26EyB5CPqML8sxjRB_R2-1" target="26EyB5CPqML8sxjRB_R2-4">
          <mxGeometry width="160" relative="1" as="geometry">
            <mxPoint x="-216" y="2" as="sourcePoint" />
            <mxPoint x="-115" y="-78" as="targetPoint" />
            <Array as="points">
              <mxPoint x="-156" y="-8" />
              <mxPoint x="-156" y="-85" />
            </Array>
          </mxGeometry>
        </mxCell>
        <mxCell id="26EyB5CPqML8sxjRB_R2-4" value="Quản lý sản phẩm" style="ellipse;whiteSpace=wrap;html=1;" vertex="1" parent="1">
          <mxGeometry x="-75" y="-119" width="186" height="68" as="geometry" />
        </mxCell>
        <mxCell id="26EyB5CPqML8sxjRB_R2-5" value="" style="endArrow=open;endFill=1;endSize=12;html=1;rounded=0;entryX=0;entryY=0.5;entryDx=0;entryDy=0;exitX=1;exitY=0.3333333333333333;exitDx=0;exitDy=0;exitPerimeter=0;edgeStyle=orthogonalEdgeStyle;" edge="1" parent="1" source="26EyB5CPqML8sxjRB_R2-1" target="26EyB5CPqML8sxjRB_R2-6">
          <mxGeometry width="160" relative="1" as="geometry">
            <mxPoint x="-216" y="2" as="sourcePoint" />
            <mxPoint x="-47" y="15" as="targetPoint" />
            <Array as="points">
              <mxPoint x="-155" y="-8" />
              <mxPoint x="-155" y="2" />
            </Array>
          </mxGeometry>
        </mxCell>
        <mxCell id="26EyB5CPqML8sxjRB_R2-6" value="Quản lý nhà cung cấp" style="ellipse;whiteSpace=wrap;html=1;" vertex="1" parent="1">
          <mxGeometry x="-49" y="-30" width="182" height="64" as="geometry" />
        </mxCell>
        <mxCell id="26EyB5CPqML8sxjRB_R2-7" value="" style="endArrow=open;endFill=1;endSize=12;html=1;rounded=0;exitX=1;exitY=0.3333333333333333;exitDx=0;exitDy=0;exitPerimeter=0;entryX=0;entryY=0.5;entryDx=0;entryDy=0;edgeStyle=orthogonalEdgeStyle;" edge="1" parent="1" source="26EyB5CPqML8sxjRB_R2-1" target="26EyB5CPqML8sxjRB_R2-8">
          <mxGeometry width="160" relative="1" as="geometry">
            <mxPoint x="-214" y="48" as="sourcePoint" />
            <mxPoint x="-94" y="80" as="targetPoint" />
            <Array as="points">
              <mxPoint x="-156" y="-8" />
              <mxPoint x="-156" y="82" />
            </Array>
          </mxGeometry>
        </mxCell>
        <mxCell id="26EyB5CPqML8sxjRB_R2-8" value="Lập hóa đơn bán hàng" style="ellipse;whiteSpace=wrap;html=1;" vertex="1" parent="1">
          <mxGeometry x="-75" y="55" width="202" height="54" as="geometry" />
        </mxCell>
        <mxCell id="26EyB5CPqML8sxjRB_R2-9" value="&amp;lt;&amp;lt;include&amp;gt;&amp;gt;" style="html=1;verticalAlign=bottom;labelBackgroundColor=none;endArrow=open;endFill=0;dashed=1;rounded=0;entryX=0;entryY=0.5;entryDx=0;entryDy=0;exitX=1;exitY=0.5;exitDx=0;exitDy=0;" edge="1" parent="1" source="26EyB5CPqML8sxjRB_R2-4" target="26EyB5CPqML8sxjRB_R2-10">
          <mxGeometry width="160" relative="1" as="geometry">
            <mxPoint x="108" y="-84" as="sourcePoint" />
            <mxPoint x="260" y="-67" as="targetPoint" />
          </mxGeometry>
        </mxCell>
        <mxCell id="26EyB5CPqML8sxjRB_R2-11" value="&amp;lt;&amp;lt;extend&amp;gt;&amp;gt;" style="html=1;verticalAlign=bottom;labelBackgroundColor=none;endArrow=open;endFill=0;dashed=1;rounded=0;exitX=1;exitY=0.5;exitDx=0;exitDy=0;entryX=0;entryY=0;entryDx=0;entryDy=0;" edge="1" parent="1" source="26EyB5CPqML8sxjRB_R2-4" target="26EyB5CPqML8sxjRB_R2-12">
          <mxGeometry x="0.4141" y="-1" width="160" relative="1" as="geometry">
            <mxPoint x="83" y="-61" as="sourcePoint" />
            <mxPoint x="236" y="48" as="targetPoint" />
            <mxPoint as="offset" />
          </mxGeometry>
        </mxCell>
        <mxCell id="26EyB5CPqML8sxjRB_R2-13" value="&amp;lt;&amp;lt;extend&amp;gt;&amp;gt;" style="html=1;verticalAlign=bottom;labelBackgroundColor=none;endArrow=open;endFill=0;dashed=1;rounded=0;entryX=0;entryY=1;entryDx=0;entryDy=0;exitX=1;exitY=0.5;exitDx=0;exitDy=0;" edge="1" parent="1" source="26EyB5CPqML8sxjRB_R2-6" target="26EyB5CPqML8sxjRB_R2-10">
          <mxGeometry x="0.0015" width="160" relative="1" as="geometry">
            <mxPoint x="136" y="-41" as="sourcePoint" />
            <mxPoint x="292" y="1" as="targetPoint" />
            <mxPoint x="-1" as="offset" />
          </mxGeometry>
        </mxCell>
        <mxCell id="26EyB5CPqML8sxjRB_R2-14" value="&amp;lt;&amp;lt;extend&amp;gt;&amp;gt;" style="html=1;verticalAlign=bottom;labelBackgroundColor=none;endArrow=open;endFill=0;dashed=1;rounded=0;entryX=0.069;entryY=0.768;entryDx=0;entryDy=0;entryPerimeter=0;exitX=1;exitY=0.5;exitDx=0;exitDy=0;" edge="1" parent="1" source="26EyB5CPqML8sxjRB_R2-8" target="26EyB5CPqML8sxjRB_R2-12">
          <mxGeometry width="160" relative="1" as="geometry">
            <mxPoint x="150" y="96" as="sourcePoint" />
            <mxPoint x="287" y="82" as="targetPoint" />
          </mxGeometry>
        </mxCell>
        <mxCell id="26EyB5CPqML8sxjRB_R2-17" value="Khách hàng&lt;div&gt;&lt;br&gt;&lt;/div&gt;" style="shape=umlActor;verticalLabelPosition=bottom;verticalAlign=top;html=1;outlineConnect=0;" vertex="1" parent="1">
          <mxGeometry x="701" y="-94" width="30" height="60" as="geometry" />
        </mxCell>
        <mxCell id="26EyB5CPqML8sxjRB_R2-18" value="" style="endArrow=open;endFill=1;endSize=12;html=1;rounded=0;entryX=0;entryY=0.5;entryDx=0;entryDy=0;exitX=1;exitY=0.3333333333333333;exitDx=0;exitDy=0;exitPerimeter=0;edgeStyle=orthogonalEdgeStyle;" edge="1" parent="1" source="26EyB5CPqML8sxjRB_R2-1" target="26EyB5CPqML8sxjRB_R2-19">
          <mxGeometry width="160" relative="1" as="geometry">
            <mxPoint x="-203" y="8" as="sourcePoint" />
            <mxPoint x="-132" y="179" as="targetPoint" />
            <Array as="points">
              <mxPoint x="-156" y="-8" />
              <mxPoint x="-156" y="152" />
            </Array>
          </mxGeometry>
        </mxCell>
        <mxCell id="26EyB5CPqML8sxjRB_R2-19" value="Nhập hàng từ nhà cung cấp" style="ellipse;whiteSpace=wrap;html=1;" vertex="1" parent="1">
          <mxGeometry x="-84" y="126" width="174" height="52" as="geometry" />
        </mxCell>
        <mxCell id="26EyB5CPqML8sxjRB_R2-20" value="" style="endArrow=open;endFill=1;endSize=12;html=1;rounded=0;entryX=0;entryY=0.5;entryDx=0;entryDy=0;exitX=1;exitY=0.3333333333333333;exitDx=0;exitDy=0;exitPerimeter=0;edgeStyle=orthogonalEdgeStyle;" edge="1" parent="1" source="26EyB5CPqML8sxjRB_R2-1" target="26EyB5CPqML8sxjRB_R2-21">
          <mxGeometry width="160" relative="1" as="geometry">
            <mxPoint x="-203" y="32" as="sourcePoint" />
            <mxPoint x="-166" y="225" as="targetPoint" />
          </mxGeometry>
        </mxCell>
        <mxCell id="26EyB5CPqML8sxjRB_R2-24" value="&amp;lt;&amp;lt;extend&amp;gt;&amp;gt;" style="html=1;verticalAlign=bottom;labelBackgroundColor=none;endArrow=open;endFill=0;dashed=1;rounded=0;entryX=0.235;entryY=0.96;entryDx=0;entryDy=0;entryPerimeter=0;" edge="1" parent="1" target="26EyB5CPqML8sxjRB_R2-12">
          <mxGeometry width="160" relative="1" as="geometry">
            <mxPoint x="91" y="154" as="sourcePoint" />
            <mxPoint x="251" y="154" as="targetPoint" />
          </mxGeometry>
        </mxCell>
        <mxCell id="26EyB5CPqML8sxjRB_R2-25" value="&amp;lt;&amp;lt;extend&amp;gt;&amp;gt;" style="html=1;verticalAlign=bottom;labelBackgroundColor=none;endArrow=open;endFill=0;dashed=1;rounded=0;exitX=0.415;exitY=0.96;exitDx=0;exitDy=0;exitPerimeter=0;entryX=0.5;entryY=0;entryDx=0;entryDy=0;" edge="1" parent="1" source="26EyB5CPqML8sxjRB_R2-12" target="26EyB5CPqML8sxjRB_R2-27">
          <mxGeometry width="160" relative="1" as="geometry">
            <mxPoint x="247" y="120" as="sourcePoint" />
            <mxPoint x="322" y="155" as="targetPoint" />
          </mxGeometry>
        </mxCell>
        <mxCell id="26EyB5CPqML8sxjRB_R2-27" value="Thêm chi tiết nhập hàng" style="ellipse;whiteSpace=wrap;html=1;" vertex="1" parent="1">
          <mxGeometry x="280" y="189" width="128.5" height="50" as="geometry" />
        </mxCell>
        <mxCell id="26EyB5CPqML8sxjRB_R2-28" value="&amp;lt;&amp;lt;extend&amp;gt;&amp;gt;" style="html=1;verticalAlign=bottom;labelBackgroundColor=none;endArrow=open;endFill=0;dashed=1;rounded=0;exitX=0.5;exitY=1;exitDx=0;exitDy=0;entryX=0.5;entryY=0;entryDx=0;entryDy=0;" edge="1" parent="1" source="26EyB5CPqML8sxjRB_R2-27" target="26EyB5CPqML8sxjRB_R2-30">
          <mxGeometry width="160" relative="1" as="geometry">
            <mxPoint x="258" y="260" as="sourcePoint" />
            <mxPoint x="344" y="315" as="targetPoint" />
          </mxGeometry>
        </mxCell>
        <mxCell id="26EyB5CPqML8sxjRB_R2-31" value="Xem báo cáo" style="ellipse;whiteSpace=wrap;html=1;" vertex="1" parent="1">
          <mxGeometry x="-128" y="277" width="134" height="44" as="geometry" />
        </mxCell>
        <mxCell id="26EyB5CPqML8sxjRB_R2-32" value="&amp;lt;&amp;lt;include&amp;gt;&amp;gt;" style="html=1;verticalAlign=bottom;labelBackgroundColor=none;endArrow=open;endFill=0;dashed=1;rounded=0;entryX=0;entryY=0.5;entryDx=0;entryDy=0;exitX=1;exitY=0.5;exitDx=0;exitDy=0;" edge="1" parent="1" source="26EyB5CPqML8sxjRB_R2-21" target="26EyB5CPqML8sxjRB_R2-27">
          <mxGeometry width="160" relative="1" as="geometry">
            <mxPoint x="60" y="227" as="sourcePoint" />
            <mxPoint x="199" y="230" as="targetPoint" />
          </mxGeometry>
        </mxCell>
        <mxCell id="26EyB5CPqML8sxjRB_R2-33" value="&amp;lt;&amp;lt;include&amp;gt;&amp;gt;" style="html=1;verticalAlign=bottom;labelBackgroundColor=none;endArrow=open;endFill=0;dashed=1;rounded=0;entryX=0.047;entryY=0.756;entryDx=0;entryDy=0;entryPerimeter=0;exitX=1;exitY=0.5;exitDx=0;exitDy=0;" edge="1" parent="1" source="26EyB5CPqML8sxjRB_R2-31" target="26EyB5CPqML8sxjRB_R2-27">
          <mxGeometry width="160" relative="1" as="geometry">
            <mxPoint x="28" y="299" as="sourcePoint" />
            <mxPoint x="169" y="296" as="targetPoint" />
          </mxGeometry>
        </mxCell>
        <mxCell id="26EyB5CPqML8sxjRB_R2-34" value="Xem báo cáo bán hàng" style="ellipse;whiteSpace=wrap;html=1;" vertex="1" parent="1">
          <mxGeometry x="-123" y="347" width="122" height="45" as="geometry" />
        </mxCell>
        <mxCell id="26EyB5CPqML8sxjRB_R2-35" value="&amp;lt;&amp;lt;include&amp;gt;&amp;gt;" style="html=1;verticalAlign=bottom;labelBackgroundColor=none;endArrow=open;endFill=0;dashed=1;rounded=0;entryX=1;entryY=0;entryDx=0;entryDy=0;exitX=0;exitY=0;exitDx=0;exitDy=0;" edge="1" parent="1" source="26EyB5CPqML8sxjRB_R2-30" target="26EyB5CPqML8sxjRB_R2-34">
          <mxGeometry width="160" relative="1" as="geometry">
            <mxPoint x="88" y="317" as="sourcePoint" />
            <mxPoint x="286" y="343" as="targetPoint" />
          </mxGeometry>
        </mxCell>
        <mxCell id="26EyB5CPqML8sxjRB_R2-36" value="&amp;lt;&amp;lt;extend&amp;gt;&amp;gt;" style="html=1;verticalAlign=bottom;labelBackgroundColor=none;endArrow=open;endFill=0;dashed=1;rounded=0;entryX=0;entryY=1;entryDx=0;entryDy=0;exitX=1;exitY=1;exitDx=0;exitDy=0;" edge="1" parent="1" source="26EyB5CPqML8sxjRB_R2-34" target="26EyB5CPqML8sxjRB_R2-30">
          <mxGeometry x="-0.0161" y="-22" width="160" relative="1" as="geometry">
            <mxPoint x="-7" y="380" as="sourcePoint" />
            <mxPoint x="153" y="380" as="targetPoint" />
            <mxPoint as="offset" />
          </mxGeometry>
        </mxCell>
        <mxCell id="26EyB5CPqML8sxjRB_R2-37" value="Nhập hàng" style="ellipse;whiteSpace=wrap;html=1;" vertex="1" parent="1">
          <mxGeometry x="471" y="94" width="138" height="54" as="geometry" />
        </mxCell>
        <mxCell id="26EyB5CPqML8sxjRB_R2-38" value="&amp;lt;&amp;lt;extend&amp;gt;&amp;gt;" style="html=1;verticalAlign=bottom;labelBackgroundColor=none;endArrow=open;endFill=0;dashed=1;rounded=0;entryX=0.5;entryY=0;entryDx=0;entryDy=0;exitX=0.784;exitY=0.96;exitDx=0;exitDy=0;exitPerimeter=0;" edge="1" parent="1" source="26EyB5CPqML8sxjRB_R2-10" target="26EyB5CPqML8sxjRB_R2-37">
          <mxGeometry width="160" relative="1" as="geometry">
            <mxPoint x="367" y="-38" as="sourcePoint" />
            <mxPoint x="527" y="-38" as="targetPoint" />
          </mxGeometry>
        </mxCell>
        <mxCell id="26EyB5CPqML8sxjRB_R2-39" value="&amp;lt;&amp;lt;extend&amp;gt;&amp;gt;" style="html=1;verticalAlign=bottom;labelBackgroundColor=none;endArrow=open;endFill=0;dashed=1;rounded=0;entryX=0.5;entryY=1;entryDx=0;entryDy=0;exitX=1;exitY=0.5;exitDx=0;exitDy=0;" edge="1" parent="1" source="26EyB5CPqML8sxjRB_R2-27" target="26EyB5CPqML8sxjRB_R2-37">
          <mxGeometry width="160" relative="1" as="geometry">
            <mxPoint x="401" y="205" as="sourcePoint" />
            <mxPoint x="561" y="205" as="targetPoint" />
          </mxGeometry>
        </mxCell>
        <mxCell id="26EyB5CPqML8sxjRB_R2-40" value="&amp;lt;&amp;lt;extend&amp;gt;&amp;gt;" style="html=1;verticalAlign=bottom;labelBackgroundColor=none;endArrow=open;endFill=0;dashed=1;rounded=0;entryX=0.5;entryY=1;entryDx=0;entryDy=0;exitX=1;exitY=0.5;exitDx=0;exitDy=0;" edge="1" parent="1" source="26EyB5CPqML8sxjRB_R2-30" target="26EyB5CPqML8sxjRB_R2-37">
          <mxGeometry width="160" relative="1" as="geometry">
            <mxPoint x="389" y="327" as="sourcePoint" />
            <mxPoint x="549" y="327" as="targetPoint" />
          </mxGeometry>
        </mxCell>
        <mxCell id="26EyB5CPqML8sxjRB_R2-41" value="" style="endArrow=open;endFill=1;endSize=12;html=1;rounded=0;entryX=1;entryY=0.5;entryDx=0;entryDy=0;exitX=0;exitY=0.3333333333333333;exitDx=0;exitDy=0;exitPerimeter=0;" edge="1" parent="1" source="26EyB5CPqML8sxjRB_R2-42" target="26EyB5CPqML8sxjRB_R2-37">
          <mxGeometry width="160" relative="1" as="geometry">
            <mxPoint x="702" y="240" as="sourcePoint" />
            <mxPoint x="710" y="121" as="targetPoint" />
          </mxGeometry>
        </mxCell>
        <mxCell id="26EyB5CPqML8sxjRB_R2-42" value="Nhà cung cấp" style="shape=umlActor;verticalLabelPosition=bottom;verticalAlign=top;html=1;" vertex="1" parent="1">
          <mxGeometry x="709" y="102" width="30" height="60" as="geometry" />
        </mxCell>
        <mxCell id="26EyB5CPqML8sxjRB_R2-43" value="Quản lí siêu thị" style="swimlane;whiteSpace=wrap;html=1;" vertex="1" parent="1">
          <mxGeometry x="-175" y="-166" width="821" height="614" as="geometry" />
        </mxCell>
        <mxCell id="26EyB5CPqML8sxjRB_R2-30" value="Cung cấp thông tin KH" style="ellipse;whiteSpace=wrap;html=1;" vertex="1" parent="26EyB5CPqML8sxjRB_R2-43">
          <mxGeometry x="492" y="511" width="135.75" height="49" as="geometry" />
        </mxCell>
        <mxCell id="26EyB5CPqML8sxjRB_R2-10" value="Mua hàng" style="ellipse;whiteSpace=wrap;html=1;" vertex="1" parent="26EyB5CPqML8sxjRB_R2-43">
          <mxGeometry x="538" y="47" width="139" height="50" as="geometry" />
        </mxCell>
        <mxCell id="26EyB5CPqML8sxjRB_R2-12" value="Thêm chi tiết hóa đơn" style="ellipse;whiteSpace=wrap;html=1;" vertex="1" parent="26EyB5CPqML8sxjRB_R2-43">
          <mxGeometry x="468" y="194" width="133" height="50" as="geometry" />
        </mxCell>
        <mxCell id="26EyB5CPqML8sxjRB_R2-15" value="&amp;lt;&amp;lt;extend&amp;gt;&amp;gt;" style="html=1;verticalAlign=bottom;labelBackgroundColor=none;endArrow=open;endFill=0;dashed=1;rounded=0;entryX=0.5;entryY=0;entryDx=0;entryDy=0;exitX=0.5;exitY=1;exitDx=0;exitDy=0;" edge="1" parent="26EyB5CPqML8sxjRB_R2-43" source="26EyB5CPqML8sxjRB_R2-10" target="26EyB5CPqML8sxjRB_R2-12">
          <mxGeometry x="-0.0216" y="-1" width="160" relative="1" as="geometry">
            <mxPoint x="505" y="123" as="sourcePoint" />
            <mxPoint x="665" y="123" as="targetPoint" />
            <mxPoint as="offset" />
          </mxGeometry>
        </mxCell>
        <mxCell id="26EyB5CPqML8sxjRB_R2-21" value="Quản lý khách hàng" style="ellipse;whiteSpace=wrap;html=1;" vertex="1" parent="26EyB5CPqML8sxjRB_R2-43">
          <mxGeometry x="79" y="367" width="191" height="59" as="geometry" />
        </mxCell>
        <mxCell id="26EyB5CPqML8sxjRB_R2-44" value="" style="endArrow=open;endFill=1;endSize=12;html=1;rounded=0;entryX=1;entryY=0.5;entryDx=0;entryDy=0;exitX=0;exitY=0.3333333333333333;exitDx=0;exitDy=0;exitPerimeter=0;" edge="1" parent="1" source="26EyB5CPqML8sxjRB_R2-17" target="26EyB5CPqML8sxjRB_R2-10">
          <mxGeometry width="160" relative="1" as="geometry">
            <mxPoint x="-206" y="4" as="sourcePoint" />
            <mxPoint x="-59" y="-72" as="targetPoint" />
          </mxGeometry>
        </mxCell>
      </root>
    </mxGraphModel>
  </diagram>
</mxfile>
